# xmcd
#
# Track frame offsets: 
#        150
#        9618
#        22094
#        36125
#        45073
#        62515
#        98679
#        122676
#        152129
#        179777
#        191161
#        200260
#
# Disc length: 2818 seconds
#
# Revision: 5
# Processed by: cddbd v1.5.2PL0 Copyright (c) Steve Scherf et al.
# Submitted via: ExactAudioCopy v1.0b3
#
DISCID=990b000c
DTITLE=Various Artist - Jazz Essential - Jazz Classics cd3
DYEAR=1997
DGENRE=Jazz
TTITLE0=Tony Bennet - Chicago
TTITLE1=Louis Armstrong - Muskrat Ramble
TTITLE2=Dizzy Gillespie - Hot House
TTITLE3=Ella Fitzgerald - Lover Come Back To Me
TTITLE4=Charlie Parker - Four Brothers
TTITLE5=Ahmad Jamal - Poinciana
TTITLE6=Sonny Stitt - The Way You Look Tonight
TTITLE7=Lonel Hampton - Airmail Special
TTITLE8=Louis Armstrong - Stompin' At The Savoy
TTITLE9=Etta James - A Tisket, A Tisket
TTITLE10=Al Jarreau - Ain't No Sunshine
TTITLE11=Dizzy Gillespie - Our Deilght
EXTD=YEAR: 1997
EXTT0=
EXTT1=
EXTT2=
EXTT3=
EXTT4=
EXTT5=
EXTT6=
EXTT7=
EXTT8=
EXTT9=
EXTT10=
EXTT11=
PLAYORDER=
